#Comment line ignore any data following # character 
#Hierarchical Translation and Rotation (.htr) file 
[Header]	
#Header keywords are followed by a single value 
FileType HTR		#Single word string
DataType HTRS		#Translation followed by rotation and scale data
FileVersion 1		#integer
NumSegments 14		#integer
NumFrames 8		#integer
DataFrameRate 30		#integer, data frame rate in this file
EulerRotationOrder ZYX
CalibrationUnits mm
RotationUnits Degrees
GlobalAxisofGravity Y
BoneLengthAxis Y
ScaleFactor 1.00
[SegmentNames&Hierarchy]
#CHILD	PARENT
MASTER GLOBAL
weapon MASTER
barrel_root weapon
middle_left_energyLow_part1 weapon
middle_left_energyLow_part2 weapon
middle_left_root weapon
middle_right_energyLow_part1 weapon
middle_top weapon
barrel1_top_root barrel_root
barrel2_top_root barrel_root
barrel3_top_root barrel_root
barrel1_top_back barrel1_top_root
barrel2_top_back barrel2_top_root
barrel3_top_back barrel3_top_root
[BasePosition]
#SegmentName Tx, Ty, Tz, Rx, Ry, Rz, BoneLength
MASTER 0.000000 0.000000 0.000000 -90.000000 0.000000 0.000000 10.000000 
weapon 0.000000 0.000000 0.000000 0.000000 0.000000 0.000000 10.000000 
barrel_root 0.000000 0.000000 0.000000 0.000000 0.000000 0.000000 10.000000 
middle_left_energyLow_part1 0.000000 0.000000 0.000000 0.000000 0.000000 0.000000 10.000000 
middle_left_energyLow_part2 0.000000 0.000000 0.000000 0.000000 0.000000 0.000000 10.000000 
middle_left_root 0.000000 0.000000 0.000000 0.000000 0.000000 0.000000 10.000000 
middle_right_energyLow_part1 0.000000 0.000000 0.000000 0.000000 0.000000 0.000000 10.000000 
middle_top 0.000000 0.000000 0.000000 0.000000 0.000000 0.000000 10.000000 
barrel1_top_root 0.000000 0.000000 0.000000 0.000000 0.000000 0.000000 10.000000 
barrel2_top_root 0.000000 0.000000 0.000000 0.000000 0.000000 0.000000 10.000000 
barrel3_top_root 0.000000 0.000000 0.000000 0.000000 0.000000 0.000000 10.000000 
barrel1_top_back 0.000000 0.000000 0.000000 0.000000 0.000000 0.000000 10.000000 
barrel2_top_back 0.000000 0.000000 0.000000 0.000000 0.000000 0.000000 10.000000 
barrel3_top_back 0.000000 0.000000 0.000000 0.000000 0.000000 0.000000 10.000000 
#Beginning of Data. Separated by tabs
#Fr	Tx	Ty	Tz	Rx	Ry	Rz	SF
[MASTER]
74 0.000000 0.000000 0.000000 0.000000 -0.000000 0.000000 0.000000
75 0.000000 0.000000 0.000000 0.000000 -0.000000 0.000000 0.000000
76 0.000000 0.000000 0.000000 0.000000 -0.000000 0.000000 0.000000
77 0.000000 0.000000 0.000000 0.000000 -0.000000 0.000000 0.000000
78 0.000000 0.000000 0.000000 0.000000 -0.000000 0.000000 0.000000
79 0.000000 0.000000 0.000000 0.000000 -0.000000 0.000000 0.000000
80 0.000000 0.000000 0.000000 0.000000 -0.000000 0.000000 0.000000
81 0.000000 0.000000 0.000000 0.000000 -0.000000 0.000000 0.000000
[weapon]
74 0.000038 -104.980545 30.104675 0.000000 0.000000 -0.000020 109.211746
75 0.000000 -104.980469 30.104521 0.000000 0.000000 -0.000020 109.211632
76 0.000095 -104.980545 30.104521 0.000000 0.000000 -0.000020 109.211700
77 -0.000038 -104.980469 30.104597 0.000000 0.000000 -0.000020 109.211655
78 0.000000 -104.980385 30.104597 0.000000 0.000000 -0.000020 109.211578
79 0.000019 -104.980385 30.104675 0.000000 0.000000 -0.000020 109.211601
80 0.000000 -104.980469 30.104521 0.000000 0.000000 -0.000020 109.211632
81 0.000019 -104.980469 30.104521 0.000000 0.000000 -0.000020 109.211632
[barrel_root]
74 -0.000051 325.111755 -55.258636 179.998215 7.435293 179.998215 329.774414
75 -0.000064 325.856323 -55.258636 179.998428 -6.114109 179.998428 330.508484
76 -0.000076 326.600952 -55.258636 179.998566 -20.920990 179.998566 331.242645
77 -0.000064 327.108398 -55.258636 179.998688 -36.659821 179.998688 331.742981
78 -0.000051 327.615784 -55.258636 179.998764 -53.001575 179.998764 332.243317
79 -0.000038 328.123230 -55.258636 179.998810 -69.631630 179.998810 332.743713
80 -0.000038 328.365112 -55.258636 179.998825 -86.214783 179.998825 332.982239
81 -0.000038 328.606995 -55.258636 0.001181 -77.563507 0.001181 333.220764
[middle_left_energyLow_part1]
74 -122.237427 -30.653076 43.989563 0.001252 -49.240452 0.001252 133.479141
75 -126.211433 -30.653152 33.512344 0.001264 -46.513176 0.001264 134.134323
76 -131.394196 -30.653076 19.360001 0.001298 -39.474350 0.001298 136.304276
77 -137.122269 -30.653303 3.459810 0.001356 -29.860809 0.001356 140.549316
78 -142.732285 -30.653076 -12.261075 0.001438 -19.378675 0.001438 146.500671
79 -147.560822 -30.653229 -25.876232 0.001535 -9.762987 0.001535 152.916306
80 -150.944443 -30.653229 -35.458145 0.001622 -2.728618 0.001622 158.054184
81 -152.219696 -30.653152 -39.080505 0.001660 0.001660 0.001660 160.117889
[middle_left_energyLow_part2]
74 -149.197479 -31.284559 30.170593 0.004077 56.542217 0.004077 155.399078
75 -160.233078 -30.710981 12.929611 0.003109 45.640759 0.003109 163.661163
76 -165.134140 -30.037682 -11.442185 0.002454 32.848793 0.002454 168.233383
77 -168.111496 -29.244989 -41.572685 0.001992 17.788368 0.001992 175.627548
78 -169.587952 -28.584898 -67.186134 0.001741 5.245881 0.001741 184.637878
79 -169.986176 -28.308868 -78.007431 0.001660 0.001728 0.001660 189.160919
80 -169.986176 -28.308857 -78.007423 0.001812 8.972662 0.001812 189.160904
81 -169.986176 -28.308844 -78.007416 0.001995 17.943663 0.001995 189.160889
[middle_left_root]
74 -125.166656 -30.653000 -22.492752 0.002625 -36.892509 179.997375 130.813690
75 -116.651039 -30.653076 -30.953445 0.002721 -38.889988 179.997269 124.519844
76 -106.555092 -30.653000 -40.984348 0.002844 -41.253723 179.997147 118.208755
77 -95.932449 -30.653076 -51.538620 0.002988 -43.742500 179.997009 113.132118
78 -85.836609 -30.653076 -61.569351 0.003141 -46.113377 179.996872 109.992363
79 -77.321014 -30.653000 -70.030258 0.003283 -48.109638 179.996719 108.730782
80 -71.439095 -30.652924 -75.874252 0.003389 -49.483597 179.996613 108.628029
81 -69.244324 -30.652924 -78.054810 0.003432 -50.001465 179.996567 108.751694
[middle_right_energyLow_part1]
74 112.831970 -29.615173 43.989563 0.003370 -49.238667 179.996628 124.672340
75 116.805969 -29.615250 33.512344 0.003168 -46.511398 179.996841 125.075073
76 121.988762 -29.615173 19.360001 0.002750 -39.477886 179.997253 127.016235
77 127.716881 -29.615250 3.459963 0.002342 -29.859125 179.997650 131.151199
78 133.326859 -29.615326 -12.261228 0.002030 -19.377024 179.997971 137.125702
79 138.155380 -29.615326 -25.876156 0.001821 -9.761356 179.998184 143.643845
80 141.539032 -29.615173 -35.458069 0.001701 -2.726991 179.998306 148.887985
81 142.814240 -29.615250 -39.080353 0.001660 -0.001660 179.998337 150.997498
[middle_top]
74 -3.220520 12.699890 14.253997 5.577651 0.001577 0.001739 19.360666
75 -3.220482 20.722885 11.617432 5.632118 0.001576 0.001739 23.974449
76 -3.220520 27.646761 10.663733 5.676685 0.001576 0.001740 29.806549
77 -3.220482 33.968090 17.440384 5.716295 0.001575 0.001740 38.319313
78 -3.220501 39.980888 33.599693 5.746008 0.001574 0.001741 52.323822
79 -3.220444 45.055111 52.886551 5.765814 0.001574 0.001741 69.550858
80 -3.220444 48.561478 69.045792 5.780675 0.001574 0.001741 84.474312
81 -3.220424 49.870071 75.822296 5.785626 0.001574 0.001741 90.809776
[barrel1_top_root]
74 0.000081 96.240509 0.000132 0.000000 -0.000000 0.000000 96.240509
75 0.000081 96.240509 0.000132 0.000000 -0.000000 0.000000 96.240509
76 0.000081 96.240509 0.000132 0.000000 -0.000000 0.000000 96.240509
77 0.000081 96.240509 0.000132 0.000000 -0.000000 0.000000 96.240509
78 0.000081 96.240509 0.000132 0.000000 -0.000000 0.000000 96.240509
79 0.000081 96.240509 0.000132 0.000000 -0.000000 0.000000 96.240509
80 0.000081 96.240509 0.000132 0.000000 -0.000000 0.000000 96.240509
81 0.000081 96.240509 0.000132 0.000000 -0.000000 0.000000 96.240509
[barrel2_top_root]
74 -0.000009 124.139923 0.000132 179.998810 -69.366623 179.998810 124.139923
75 -0.000009 124.139923 0.000132 179.998825 -73.003784 179.998825 124.139923
76 -0.000009 124.139923 0.000132 179.998825 -78.435410 179.998825 124.139923
77 -0.000009 124.139923 0.000132 179.998825 -85.156036 179.998825 124.139923
78 -0.000009 124.139923 0.000132 0.001174 -87.351440 0.001174 124.139923
79 -0.000009 124.139923 0.000132 0.001178 -79.608406 0.001178 124.139923
80 -0.000009 124.139923 0.000132 0.001188 -72.120308 0.001188 124.139923
81 -0.000009 124.139923 0.000132 0.001201 -65.401711 0.001201 124.139923
[barrel3_top_root]
74 0.000101 69.591400 0.000123 179.997131 41.555065 179.997131 69.591400
75 0.000101 69.591400 0.000123 179.996902 45.533470 179.996902 69.591400
76 0.000101 69.591400 0.000123 179.996429 51.600227 179.996429 69.591400
77 0.000101 69.591400 0.000123 179.995575 59.283691 179.995575 69.591400
78 0.000101 69.591400 0.000123 179.993820 68.130356 179.993820 69.591400
79 0.000101 69.591400 0.000123 179.989059 77.675758 179.989059 69.591400
80 0.000101 69.591400 0.000123 179.947220 87.451706 179.947220 69.591400
81 0.000101 69.591400 0.000123 0.019250 83.009369 0.019250 69.591400
[barrel1_top_back]
74 -3.343935 98.041893 186.671844 -39.432392 0.002122 0.001003 210.878571
75 -3.343935 98.041893 186.671844 -39.916100 0.002127 0.000994 210.878571
76 -3.343935 98.041893 186.671844 -40.358395 0.002130 0.000985 210.878571
77 -3.343935 98.041893 186.671844 -40.753822 0.002134 0.000978 210.878571
78 -3.343935 98.041893 186.671844 -41.102226 0.002137 0.000971 210.878571
79 -3.343935 98.041893 186.671844 -41.403446 0.002139 0.000966 210.878571
80 -3.343935 98.041893 186.671844 -41.657322 0.002141 0.000961 210.878571
81 -3.343935 98.041893 186.671844 -41.853172 0.002143 0.000957 210.878571
[barrel2_top_back]
74 3.886122 70.142326 185.630630 -20.081537 0.001924 0.001345 198.478668
75 3.886122 70.142326 185.630630 -20.327692 0.001927 0.001341 198.478668
76 3.886122 70.142326 185.630630 -20.541313 0.001929 0.001337 198.478668
77 3.886122 70.142326 185.630630 -20.754929 0.001932 0.001334 198.478668
78 3.886122 70.142326 185.630630 -20.935957 0.001934 0.001331 198.478668
79 3.886122 70.142326 185.630630 -21.086857 0.001935 0.001328 198.478668
80 3.886122 70.142326 185.630630 -21.217665 0.001937 0.001326 198.478668
81 3.886122 70.142326 185.630630 -21.318310 0.001938 0.001324 198.478668
[barrel3_top_back]
74 -0.050068 125.495209 180.152344 -30.503977 0.002038 0.001165 219.553894
75 -0.050068 125.495209 180.152344 -30.942263 0.002042 0.001157 219.553894
76 -0.050068 125.495209 180.152344 -31.337601 0.002046 0.001150 219.553894
77 -0.050068 125.495209 180.152344 -31.702459 0.002050 0.001143 219.553894
78 -0.050068 125.495209 180.152344 -32.031620 0.002053 0.001137 219.553894
79 -0.050068 125.495209 180.152344 -32.325020 0.002056 0.001132 219.553894
80 -0.050068 125.495209 180.152344 -32.587708 0.002059 0.001127 219.553894
81 -0.050068 125.495209 180.152344 -32.814491 0.002061 0.001123 219.553894
